<svg xmlns="http://www.w3.org/2000/svg" xmlns:xlink="http://www.w3.org/1999/xlink" viewBox="0 0 65.879 65.879" fill="#fff" fill-rule="evenodd" stroke="#000" stroke-linecap="round" stroke-linejoin="round"><use xlink:href="#A" x=".94" y=".94"/><symbol id="A" overflow="visible"><path d="M33.297 15.07A15.04 15.04 0 0 1 48.367 0a15.04 15.04 0 0 1 15.07 15.07 15.04 15.04 0 0 1-15.07 15.07 15.04 15.04 0 0 1-15.07-15.07zM13.623 53.14a10.84 10.84 0 0 1 10.861-10.861 10.861 10.861 0 1 1 0 21.722A10.84 10.84 0 0 1 13.623 53.14zM0 28.355c0-3.477 2.8-6.276 6.276-6.276s6.276 2.8 6.276 6.276-2.8 6.276-6.276 6.276S0 31.832 0 28.355z" stroke="none" fill="#1475bb" fill-rule="nonzero"/></symbol></svg>